<svg xmlns="http://www.w3.org/2000/svg" viewBox="0 0 512 512">
  <rect width="512" height="512" rx="120" fill="#bf360c"/>
  <circle cx="258" cy="213" r="124" fill="#fff3e0"/>
  <circle cx="320" cy="178" r="18" fill="#4e1d0d"/>
  <path d="M167 254c0-70 57-127 127-127 39 0 74 17 98 45-14-60-68-104-132-104-74 0-135 61-135 135 0 55 33 103 80 124-24-20-38-50-38-73z" fill="#ffcc80"/>
  <path d="M354 252c-21 25-53 41-89 41-55 0-102-36-118-86-2 10-4 20-4 31 0 74 61 135 135 135s135-61 135-135c0-24-6-47-18-67 2 9 3 18 3 27 0 20-6 39-18 54z" fill="#ffe0b2"/>
  <path d="M367 194l55 29-54 28c-12 6-27-2-27-15v-27c0-13 15-22 26-15z" fill="#ff8f00"/>
  <path d="M215 374c18 16 42 26 68 26 31 0 60-14 79-36-76 17-117 18-147 10z" fill="#fffaf2"/>
</svg>
